<svg width="200" height="200" viewBox="0 0 200 200" fill="none" xmlns="http://www.w3.org/2000/svg">
<rect width="200" height="200" fill="black"/>
<path d="M58.0547 185V105H113.836V120.703H77.3906V137.109H110.984V152.852H77.3906V169.297H113.836V185H58.0547ZM164.788 128.984C164.527 126.12 163.368 123.893 161.311 122.305C159.28 120.69 156.376 119.883 152.6 119.883C150.1 119.883 148.017 120.208 146.35 120.859C144.683 121.51 143.433 122.409 142.6 123.555C141.767 124.674 141.337 125.964 141.311 127.422C141.259 128.62 141.493 129.674 142.014 130.586C142.561 131.497 143.342 132.305 144.358 133.008C145.399 133.685 146.649 134.284 148.108 134.805C149.566 135.326 151.207 135.781 153.03 136.172L159.905 137.734C163.863 138.594 167.353 139.74 170.373 141.172C173.42 142.604 175.972 144.31 178.03 146.289C180.113 148.268 181.689 150.547 182.756 153.125C183.824 155.703 184.371 158.594 184.397 161.797C184.371 166.849 183.095 171.185 180.569 174.805C178.043 178.424 174.41 181.198 169.67 183.125C164.957 185.052 159.267 186.016 152.6 186.016C145.907 186.016 140.074 185.013 135.1 183.008C130.126 181.003 126.259 177.956 123.498 173.867C120.738 169.779 119.319 164.609 119.241 158.359H137.756C137.912 160.938 138.603 163.086 139.827 164.805C141.051 166.523 142.73 167.826 144.866 168.711C147.027 169.596 149.527 170.039 152.366 170.039C154.97 170.039 157.183 169.687 159.006 168.984C160.855 168.281 162.274 167.305 163.264 166.055C164.254 164.805 164.761 163.372 164.788 161.758C164.761 160.247 164.293 158.958 163.381 157.891C162.47 156.797 161.064 155.859 159.163 155.078C157.287 154.271 154.892 153.529 151.975 152.852L143.616 150.898C136.689 149.31 131.233 146.745 127.248 143.203C123.264 139.635 121.285 134.818 121.311 128.75C121.285 123.802 122.613 119.466 125.295 115.742C127.978 112.018 131.689 109.115 136.428 107.031C141.168 104.948 146.571 103.906 152.639 103.906C158.837 103.906 164.215 104.961 168.772 107.07C173.355 109.154 176.91 112.083 179.436 115.859C181.962 119.635 183.251 124.01 183.303 128.984H164.788Z" fill="white"/>
</svg>
